HIERARCHY
ROOT Hips
{
	OFFSET -1.602300 6.242603 43.997101
	CHANNELS 6 Xposition Yposition Zposition Zrotation Xrotation Yrotation
	JOINT Chest
	{
		OFFSET -0.204900 1.598101 7.917301
		CHANNELS 6 Xposition Yposition Zposition Zrotation Xrotation Yrotation
		JOINT Chest2
		{
			OFFSET 0.000000 0.000000 3.404099
			CHANNELS 6 Xposition Yposition Zposition Zrotation Xrotation Yrotation
			JOINT Neck
			{
				OFFSET 0.000000 0.000000 7.928600
				CHANNELS 6 Xposition Yposition Zposition Zrotation Xrotation Yrotation
				JOINT Head
				{
					OFFSET 0.000000 0.000000 2.173897
					CHANNELS 6 Xposition Yposition Zposition Zrotation Xrotation Yrotation
					End Site
					{
						OFFSET 0.000000 0.000001 10.404503
					}
				}
			}
			JOINT LeftCollar
			{
				OFFSET 2.833800 -1.396299 4.843300
				CHANNELS 6 Xposition Yposition Zposition Zrotation Xrotation Yrotation
				JOINT LeftShoulder
				{
					OFFSET 4.363600 0.000000 0.000000
					CHANNELS 6 Xposition Yposition Zposition Zrotation Xrotation Yrotation
					JOINT LeftElbow
					{
						OFFSET 0.000000 -0.000001 -10.306900
						CHANNELS 6 Xposition Yposition Zposition Zrotation Xrotation Yrotation
						JOINT LeftWrist
						{
							OFFSET 0.000000 -0.000001 -12.404900
							CHANNELS 6 Xposition Yposition Zposition Zrotation Xrotation Yrotation
							End Site
							{
								OFFSET 0.000000 0.000000 -2.173901
							}
						}
					}
				}
			}
			JOINT RightCollar
			{
				OFFSET -2.354800 -1.897200 5.063099
				CHANNELS 6 Xposition Yposition Zposition Zrotation Xrotation Yrotation
				JOINT RightShoulder
				{
					OFFSET -4.375800 0.000000 0.000000
					CHANNELS 6 Xposition Yposition Zposition Zrotation Xrotation Yrotation
					JOINT RightElbow
					{
						OFFSET 0.000000 -0.000001 -10.005001
						CHANNELS 6 Xposition Yposition Zposition Zrotation Xrotation Yrotation
						JOINT RightWrist
						{
							OFFSET 0.000000 -0.000001 -13.174900
							CHANNELS 6 Xposition Yposition Zposition Zrotation Xrotation Yrotation
							End Site
							{
								OFFSET 0.000000 0.000000 -2.173901
							}
						}
					}
				}
			}
		}
	}
	JOINT LeftHip
	{
		OFFSET 2.240600 0.386800 -2.614101
		CHANNELS 6 Xposition Yposition Zposition Zrotation Xrotation Yrotation
		JOINT LeftKnee
		{
			OFFSET 0.000000 -0.000001 -18.592899
			CHANNELS 6 Xposition Yposition Zposition Zrotation Xrotation Yrotation
			JOINT LeftAnkle
			{
				OFFSET 0.000000 -0.000001 -18.765800
				CHANNELS 6 Xposition Yposition Zposition Zrotation Xrotation Yrotation
				End Site
				{
					OFFSET 0.000000 -8.655000 0.000000
				}
			}
		}
	}
	JOINT RightHip
	{
		OFFSET -2.014900 -0.220900 -2.615898
		CHANNELS 6 Xposition Yposition Zposition Zrotation Xrotation Yrotation
		JOINT RightKnee
		{
			OFFSET 0.000000 -0.000001 -18.633900
			CHANNELS 6 Xposition Yposition Zposition Zrotation Xrotation Yrotation
			JOINT RightAnkle
			{
				OFFSET 0.000000 -0.000001 -18.285101
				CHANNELS 6 Xposition Yposition Zposition Zrotation Xrotation Yrotation
				End Site
				{
					OFFSET 0.000000 -7.524500 0.000000
				}
			}
		}
	}
}
MOTION
Frames: 6
Frame Time: 0.041667
-5.514499 25.363901 7.824406 1.833136 2.762399 7.351501 -0.204902 1.598105 7.917311 -1.870751 0.506415 -6.624131 0.000000 0.000001 3.404101 0.746417 -11.833354 -1.099120 -0.000000 0.000000 7.928598 1.515741 4.394352 -2.378303 0.000000 0.000004 2.173894 0.885056 -2.925007 2.021771 2.833803 -1.396298 4.843299 -9.856314 11.560057 15.058516 4.363596 0.000006 -0.000001 -54.996857 6.729680 -75.910518 0.000002 0.000004 -10.306900 216.193068 -125.507690 234.260735 -0.000000 0.000003 -12.404897 -119.943955 175.123277 -170.544687 -2.354802 -1.897199 5.063102 14.310209 9.278085 -13.397449 -4.375793 0.000005 -0.000008 175.537023 -56.368076 239.358160 -0.000004 -0.000009 -10.005009 41.035742 4.335494 -107.562850 -0.000005 0.000005 -13.174909 126.040828 -179.957207 67.126204 2.240599 0.386807 -2.614102 145.363501 -33.269011 117.687438 -0.000001 0.000000 -18.592894 -115.973115 34.977802 134.289142 -0.000002 0.000000 -18.765797 3.512978 24.237346 44.324216 -2.014900 -0.220892 -2.615901 -115.045439 -11.287389 -100.466762 -0.000001 0.000002 -18.633881 169.211352 21.765071 -178.194581 -0.000009 -0.000004 -18.285089 -25.732756 34.663347 -226.982281
-5.505999 25.361607 7.828110 1.827259 2.808021 7.327246 -0.204902 1.598104 7.917305 -1.864263 0.521398 -6.588847 -0.000000 -0.000003 3.404098 0.720499 -11.847319 -1.107031 0.000000 -0.000001 7.928597 1.588905 4.311971 -2.422648 0.000000 -0.000001 2.173905 0.873855 -2.882801 2.056184 2.833802 -1.396303 4.843303 -9.713086 11.517834 14.984520 4.363597 0.000007 0.000002 -55.081907 6.829368 -76.117862 0.000002 0.000003 -10.306900 216.652795 -125.525790 234.696829 0.000001 0.000002 -12.404891 -120.122346 175.165720 -170.305439 -2.354802 -1.897204 5.063101 14.210560 9.213298 -13.309278 -4.375792 0.000006 -0.000004 175.695551 -56.163437 239.289203 -0.000010 -0.000004 -10.005008 41.271210 4.196621 -107.648952 -0.000005 0.000005 -13.174912 125.355104 -179.729243 66.992770 2.240599 0.386806 -2.614108 145.351958 -33.252086 117.666742 -0.000000 -0.000002 -18.592896 -115.970274 35.037364 134.309946 -0.000003 -0.000002 -18.765800 3.449416 24.305314 44.094588 -2.014900 -0.220897 -2.615902 -115.104506 -11.250632 -100.515311 -0.000001 0.000002 -18.633884 169.152299 21.719546 -178.142836 -0.000009 -0.000001 -18.285088 -25.790038 34.653900 -226.929442
-5.499699 25.361004 7.834106 1.836853 2.856556 7.318487 -0.204901 1.598101 7.917306 -1.873013 0.538965 -6.569104 0.000000 0.000000 3.404103 0.725664 -11.860261 -1.108590 0.000001 -0.000000 7.928602 1.626331 4.231674 -2.465867 -0.000000 -0.000001 2.173901 0.863647 -2.852398 2.059257 2.833803 -1.396299 4.843300 -9.611193 11.479508 14.882666 4.363595 0.000004 -0.000003 -55.163996 7.016562 -76.249233 0.000004 0.000006 -10.306899 216.918284 -125.212708 234.784693 0.000001 0.000000 -12.404892 -120.108754 175.060808 -170.026399 -2.354800 -1.897200 5.063101 14.251861 6.327398 -13.126690 -4.375797 0.000008 -0.000003 174.719545 -58.765841 238.855048 -0.000004 -0.000007 -10.005012 41.429776 4.127006 -107.795678 -0.000001 0.000006 -13.174911 124.625107 -179.378704 66.666034 2.240598 0.386802 -2.614104 145.323039 -33.242339 117.634408 0.000001 0.000000 -18.592894 -115.963553 35.091582 134.327117 -0.000002 -0.000000 -18.765797 3.382304 24.381207 43.830260 -2.014896 -0.220896 -2.615900 -115.163082 -11.223687 -100.545972 -0.000001 0.000001 -18.633886 169.079147 21.687816 -178.088740 -0.000009 -0.000002 -18.285086 -25.839536 34.640872 -226.876700
-5.494598 25.361404 7.841713 1.850913 2.903360 7.335862 -0.204901 1.598099 7.917310 -1.884870 0.562089 -6.580871 -0.000000 0.000000 3.404104 0.713829 -11.871794 -1.113957 -0.000000 -0.000004 7.928596 1.669874 4.141384 -2.496308 -0.000000 0.000001 2.173902 0.954848 -2.694909 1.575784 2.833802 -1.396307 4.843302 -9.471331 11.443710 14.742764 4.363599 0.000003 -0.000001 -55.244943 7.064053 -76.396574 0.000003 0.000002 -10.306899 217.246475 -125.010275 235.008095 -0.000000 0.000002 -12.404893 -120.205688 174.965705 -169.805073 -2.354803 -1.897204 5.063100 14.142968 6.310593 -12.940130 -4.375792 0.000005 -0.000003 174.812189 -58.670007 238.775053 -0.000007 -0.000006 -10.005005 41.526266 3.969621 -108.011771 -0.000004 0.000004 -13.174913 123.700135 -178.944782 66.085755 2.240600 0.386800 -2.614103 145.292563 -33.249535 117.601036 -0.000002 -0.000002 -18.592894 -115.954359 35.142945 134.344439 -0.000003 -0.000001 -18.765799 3.324390 24.485755 43.475633 -2.014897 -0.220898 -2.615899 -115.214677 -11.185162 -100.556094 0.000000 0.000003 -18.633881 168.999097 21.663613 -178.031094 -0.000008 -0.000003 -18.285086 -25.885427 34.626327 -226.824162
-5.494898 25.362206 7.855602 1.835343 2.928650 7.470865 -0.204902 1.598103 7.917304 -1.855721 0.626854 -6.752886 -0.000000 0.000001 3.404104 0.497975 -11.882244 -1.176172 0.000000 0.000000 7.928604 1.899940 4.039758 -2.425330 -0.000000 0.000005 2.173903 0.920689 -2.686379 1.551361 2.833803 -1.396302 4.843310 -8.838925 11.359521 14.588084 4.363594 0.000005 -0.000001 -55.547634 7.022313 -76.466809 0.000004 0.000006 -10.306902 217.298015 -124.583470 235.166200 0.000002 0.000001 -12.404896 -119.978598 175.007205 -169.732988 -2.354801 -1.897200 5.063102 14.191170 6.451442 -12.147691 -4.375790 0.000002 -0.000003 175.873369 -58.473707 239.859578 -0.000008 -0.000007 -10.005012 41.548065 3.744359 -108.256019 -0.000003 0.000005 -13.174914 122.866565 -178.674648 65.829951 2.240598 0.386802 -2.614104 145.374020 -33.465874 117.674433 0.000001 0.000001 -18.592894 -115.816936 35.223958 134.340136 -0.000002 -0.000001 -18.765799 3.259404 24.626595 43.000108 -2.014900 -0.220897 -2.615899 -115.195594 -11.118879 -100.489520 0.000001 0.000002 -18.633884 168.874283 21.669639 -177.971944 -0.000009 -0.000000 -18.285086 -25.913789 34.613503 -226.791213
-5.496099 25.362904 7.867599 1.805035 2.942584 7.623583 -0.204902 1.598102 7.917309 -1.811588 0.689582 -6.940655 0.000000 0.000004 3.404099 0.299362 -11.894924 -1.230890 -0.000001 0.000001 7.928598 2.092644 3.944783 -2.343451 0.000000 0.000005 2.173907 0.897065 -2.677847 1.506466 2.833802 -1.396300 4.843301 -8.389059 11.269564 14.601681 4.363596 0.000005 0.000001 -55.610328 6.895386 -76.787015 0.000004 0.000001 -10.306901 217.898157 -124.611433 236.047567 0.000001 -0.000000 -12.404890 -120.393928 174.987930 -169.773368 -2.354803 -1.897199 5.063101 14.368152 6.560759 -11.563345 -4.375796 0.000005 -0.000009 176.624594 -58.095137 240.622619 -0.000010 -0.000007 -10.005013 41.794795 3.834798 -108.250104 -0.000005 0.000008 -13.174907 122.894610 -178.948170 66.419362 2.240598 0.386803 -2.614103 145.474396 -33.694792 117.753677 -0.000000 -0.000000 -18.592892 -115.634884 35.251518 134.314003 -0.000003 -0.000001 -18.765797 3.269938 24.755585 42.526762 -2.014896 -0.220894 -2.615898 -115.157372 -11.049281 -100.415508 0.000000 0.000001 -18.633886 168.747651 21.678583 -177.920581 -0.000009 -0.000002 -18.285084 -25.939853 34.603548 -226.765368
